<svg width="23" height="24" viewBox="0 0 23 24" fill="none" xmlns="http://www.w3.org/2000/svg">
<path d="M23 2.55556H8.94446V4.25926H23V2.55556Z" fill="black"/>
<path d="M0 3.40741C0 4.08133 0.199841 4.74012 0.574252 5.30046C0.948663 5.86081 1.48083 6.29754 2.10345 6.55544C2.72607 6.81334 3.41119 6.88082 4.07216 6.74934C4.73313 6.61787 5.34027 6.29334 5.81681 5.81681C6.29334 5.34027 6.61787 4.73313 6.74934 4.07216C6.88082 3.41119 6.81334 2.72607 6.55544 2.10345C6.29754 1.48083 5.86081 0.948663 5.30046 0.574252C4.74012 0.199841 4.08133 0 3.40741 0C2.50402 0.0010146 1.63792 0.360334 0.999127 0.999127C0.360334 1.63792 0.0010146 2.50402 0 3.40741ZM3.40741 1.7037C3.74437 1.7037 4.07376 1.80362 4.35393 1.99083C4.63411 2.17804 4.85248 2.44412 4.98142 2.75543C5.11037 3.06674 5.14411 3.4093 5.07838 3.73978C5.01264 4.07027 4.85038 4.37384 4.61211 4.61211C4.37384 4.85038 4.07027 5.01264 3.73978 5.07838C3.4093 5.14411 3.06674 5.11037 2.75543 4.98142C2.44412 4.85248 2.17804 4.63411 1.99083 4.35393C1.80362 4.07376 1.7037 3.74437 1.7037 3.40741C1.70421 2.95571 1.88387 2.52266 2.20327 2.20327C2.52266 1.88387 2.95571 1.70421 3.40741 1.7037Z" fill="black"/>
<path d="M23 11.0741H8.94446V12.7778H23V11.0741Z" fill="black"/>
<path d="M3.40741 15.3333C4.08133 15.3333 4.74012 15.1335 5.30046 14.7591C5.86081 14.3847 6.29754 13.8525 6.55544 13.2299C6.81334 12.6073 6.88082 11.9222 6.74934 11.2612C6.61787 10.6002 6.29334 9.99307 5.81681 9.51653C5.34027 9.04 4.73313 8.71547 4.07216 8.584C3.41119 8.45252 2.72607 8.52 2.10345 8.7779C1.48083 9.0358 0.948663 9.47253 0.574252 10.0329C0.199841 10.5932 0 11.252 0 11.9259C0.0010146 12.8293 0.360334 13.6954 0.999127 14.3342C1.63792 14.973 2.50402 15.3323 3.40741 15.3333ZM3.40741 10.2222C3.74437 10.2222 4.07376 10.3222 4.35393 10.5094C4.63411 10.6966 4.85248 10.9626 4.98142 11.274C5.11037 11.5853 5.14411 11.9278 5.07838 12.2583C5.01264 12.5888 4.85038 12.8924 4.61211 13.1306C4.37384 13.3689 4.07027 13.5312 3.73978 13.5969C3.4093 13.6626 3.06674 13.6289 2.75543 13.5C2.44412 13.371 2.17804 13.1526 1.99083 12.8725C1.80362 12.5923 1.7037 12.2629 1.7037 11.9259C1.70421 11.4742 1.88387 11.0412 2.20327 10.7218C2.52266 10.4024 2.95571 10.2227 3.40741 10.2222Z" fill="black"/>
<path d="M23 19.5926H8.94446V21.2963H23V19.5926Z" fill="black"/>
<path d="M3.40741 23.8518C4.08133 23.8518 4.74012 23.652 5.30046 23.2776C5.86081 22.9032 6.29754 22.371 6.55544 21.7484C6.81334 21.1258 6.88082 20.4407 6.74934 19.7797C6.61787 19.1187 6.29334 18.5116 5.81681 18.035C5.34027 17.5585 4.73313 17.234 4.07216 17.1025C3.41119 16.971 2.72607 17.0385 2.10345 17.2964C1.48083 17.5543 0.948663 17.991 0.574252 18.5514C0.199841 19.1117 0 19.7705 0 20.4444C0.0010146 21.3478 0.360334 22.2139 0.999127 22.8527C1.63792 23.4915 2.50402 23.8508 3.40741 23.8518ZM3.40741 18.7407C3.74437 18.7407 4.07376 18.8407 4.35393 19.0279C4.63411 19.2151 4.85248 19.4812 4.98142 19.7925C5.11037 20.1038 5.14411 20.4463 5.07838 20.7768C5.01264 21.1073 4.85038 21.4109 4.61211 21.6491C4.37384 21.8874 4.07027 22.0497 3.73978 22.1154C3.4093 22.1811 3.06674 22.1474 2.75543 22.0185C2.44412 21.8895 2.17804 21.6711 1.99083 21.391C1.80362 21.1108 1.7037 20.7814 1.7037 20.4444C1.70421 19.9927 1.88387 19.5597 2.20327 19.2403C2.52266 18.9209 2.95571 18.7412 3.40741 18.7407Z" fill="black"/>
</svg>
